HIERARCHY
ROOT pelvis
{
	OFFSET 0.000000 0.000000 0.000000
	CHANNELS 6 Xposition Yposition Zposition Zrotation Xrotation Yrotation
	JOINT lfemur
	{
		OFFSET 11.446000 0.000000 0.000000
		CHANNELS 3 Zrotation Xrotation Yrotation
		JOINT ltibia
		{
			OFFSET 0.000000 -42.030400 0.000000
			CHANNELS 3 Zrotation Xrotation Yrotation
			JOINT lfoot
			{
				OFFSET 0.000000 -39.930200 0.000000
				CHANNELS 3 Zrotation Xrotation Yrotation
				JOINT ltoes
				{
					OFFSET 0.000000 0.000000 11.775800
					CHANNELS 3 Zrotation Xrotation Yrotation
					End Site
					{
					    OFFSET 0.000000 0.000000 5.000000
					}
				}
			}
		}
	}
	JOINT rfemur
	{
		OFFSET -11.446000 0.000000 0.000000
		CHANNELS 3 Zrotation Xrotation Yrotation
		JOINT rtibia
		{
			OFFSET 0.000000 -42.030400 0.000000
			CHANNELS 3 Zrotation Xrotation Yrotation
			JOINT rfoot
			{
				OFFSET 0.000000 -39.930200 0.000000
				CHANNELS 3 Zrotation Xrotation Yrotation
				JOINT rtoes
				{
					OFFSET 0.000000 0.000000 11.775800
					CHANNELS 3 Zrotation Xrotation Yrotation
					End Site
					{
					    OFFSET 0.000000 0.000000 5.000000
					}
				}
			}
		}
	}
	JOINT thorax
	{
		OFFSET 0.000000 11.255600 -5.000000
		CHANNELS 3 Zrotation Xrotation Yrotation
		JOINT head
		{
			OFFSET 0.000000 43.799300 0.000000
			CHANNELS 3 Zrotation Xrotation Yrotation
			End Site
			{
			    OFFSET 0.000000 5.000000 0.000000
			}
		}
		JOINT lclavicle
		{
			OFFSET 0.000000 39.863000 0.000000
			CHANNELS 3 Zrotation Xrotation Yrotation
			JOINT lhumerus
			{
				OFFSET 17.380600 4.958300 0.000000
				CHANNELS 3 Zrotation Xrotation Yrotation
				JOINT lradius
				{
					OFFSET 0.000000 -27.561300 0.000000
					CHANNELS 3 Zrotation Xrotation Yrotation
					JOINT lhand
					{
						OFFSET 0.000000 -26.933000 0.000000
						CHANNELS 3 Zrotation Xrotation Yrotation
						End Site
						{
						    OFFSET 0.000000 -5.000000 0.000000
						}
					}
				}
			}
		}
		JOINT rclavicle
		{
			OFFSET 0.000000 39.863000 0.000000
			CHANNELS 3 Zrotation Xrotation Yrotation
			JOINT rhumerus
			{
				OFFSET -17.380600 4.958300 0.000000
				CHANNELS 3 Zrotation Xrotation Yrotation
				JOINT rradius
				{
					OFFSET 0.000000 -27.561300 0.000000
					CHANNELS 3 Zrotation Xrotation Yrotation
					JOINT rhand
					{
						OFFSET 0.000000 -26.933000 0.000000
						CHANNELS 3 Zrotation Xrotation Yrotation
						End Site
						{
						    OFFSET 0.000000 -5.000000 0.000000
						}
					}
				}
			}
		}
	}
}
MOTION
Frames:	10
Frame Time:	0.0333333
49.398900 87.310300 4.799400 -1.269695 -3.672369 -88.055815 -9.519979 2.586593 -6.540057 -0.000000 10.211575 -0.000000 -0.000000 3.396480 7.022881 0.000000 -1.334601 -0.000000 -3.864178 -0.800641 -7.677092 -0.000000 18.668859 -0.000000 -0.000000 -2.000553 -0.939241 -0.000000 -29.537613 0.000000 -5.478475 1.077774 -0.189402 16.981370 23.642733 2.468931 5.230726 0.000000 1.661769 84.627475 -0.131266 60.630798 0.000000 -13.741872 -57.724809 5.877343 -1.173495 -0.000000 -4.324679 0.000000 -1.189644 -76.691973 6.946390 -63.986518 0.000000 -21.278397 41.463606 -3.666881 -2.150356 0.000000 
49.380200 87.311000 4.734800 -1.280630 -3.732275 -88.094301 -9.522160 2.686819 -6.493273 -0.000000 10.054514 0.000000 0.000000 3.437036 6.996881 -0.000000 -1.336513 -0.000000 -3.881094 -0.783888 -7.662929 -0.000000 18.667468 -0.000000 -0.000000 -2.070669 -0.957486 0.000000 -29.537777 0.000000 -5.482579 1.141705 -0.106626 16.887260 23.606008 2.289247 4.992578 0.000000 1.938452 85.038976 -0.551052 60.798601 0.000000 -13.537248 -57.721029 6.134153 -1.092762 -0.000000 -4.605417 0.000000 -1.044207 -76.443833 7.104715 -64.013208 -0.000000 -21.484597 41.714497 -3.738608 -2.125975 0.000000 
49.343900 87.337400 4.666900 -1.240448 -3.734524 -88.075515 -9.457849 2.801150 -6.428545 -0.000000 9.783924 -0.000000 0.000000 3.605896 6.943242 -0.000000 -1.339278 -0.000000 -3.802867 -0.668088 -7.600866 -0.000000 18.407038 -0.000000 -0.000000 -2.001955 -0.992636 -0.000000 -29.537275 -0.000000 -5.510293 0.998992 -0.004933 16.871050 23.819417 2.166077 5.092513 0.000000 1.984059 84.870291 -0.732381 61.018723 0.000001 -13.621850 -57.716319 6.187904 -1.096155 -0.000000 -4.768910 -0.000000 -1.105334 -76.361000 7.012833 -64.375257 0.000000 -21.589259 41.560710 -3.533273 -2.196041 -0.000000 
49.302800 87.377600 4.601300 -1.167779 -3.582488 -87.853370 -9.256935 2.809640 -6.696309 -0.000000 9.683255 0.000000 -0.000000 3.630107 7.020578 -0.000000 -1.341698 -0.000000 -3.509907 -0.344219 -7.460153 0.000000 17.703912 0.000000 0.000000 -1.676304 -1.319658 0.000000 -29.536671 -0.000000 -5.385233 0.863428 -0.027087 16.881687 23.839703 1.861569 4.990154 -0.000000 1.976125 84.960243 -0.831980 60.808057 0.000001 -13.658370 -57.516320 5.964371 -1.269597 0.000000 -4.939813 0.000000 -1.297840 -76.261446 6.994977 -64.541796 0.000000 -21.796797 41.788680 -3.591791 -2.176080 0.000000 
49.246700 87.393600 4.572300 -1.145146 -3.535021 -87.592045 -9.170842 2.873579 -6.861387 -0.000000 9.584682 0.000000 -0.000000 3.688125 6.975736 -0.000000 -1.339996 -0.000000 -3.399055 -0.151590 -7.482126 -0.000000 17.446393 -0.000000 0.000000 -1.562808 -1.519052 -0.000000 -29.536698 -0.000000 -5.421919 0.777909 -0.102163 16.990132 23.829901 1.793355 5.113138 0.000000 1.983401 84.852011 -0.909532 60.936816 0.000000 -13.719274 -57.501522 5.784178 -1.255464 -0.000000 -4.950055 0.000000 -1.448702 -76.364161 7.096730 -64.587997 0.000000 -21.926527 41.750446 -3.824332 -2.099059 -0.000000 
49.210800 87.380200 4.556300 -1.173983 -3.582008 -87.363856 -9.192700 2.956657 -7.065955 -0.000000 9.531691 0.000000 -0.000000 3.659746 6.985010 0.000000 -1.340471 0.000000 -3.420237 -0.149816 -7.529337 0.000000 17.663353 0.000000 0.000000 -1.725661 -1.703645 -0.000000 -29.536432 -0.000000 -5.596958 0.846121 -0.201546 17.180221 23.565380 1.816751 5.203930 -0.000000 1.837640 84.945370 -0.625042 60.841490 -0.000000 -13.771053 -57.330394 5.709663 -1.413729 -0.000000 -5.052162 0.000000 -1.707525 -76.419694 7.021595 -64.689750 0.000001 -21.933677 41.447123 -4.087475 -2.009015 -0.000000 
49.168300 87.351500 4.542100 -1.312819 -3.683428 -87.277044 -9.270401 3.135322 -7.094076 -0.000000 9.530023 0.000000 -0.000000 3.611828 6.950824 0.000000 -1.341691 0.000000 -3.536756 -0.171944 -7.605866 -0.000000 18.105659 -0.000000 0.000000 -1.896993 -1.673459 -0.000000 -29.536862 -0.000000 -5.831876 1.031808 -0.288410 17.334185 23.379985 1.824451 5.120579 0.000000 1.871276 85.282714 -0.312451 60.373108 0.000000 -13.937613 -57.388337 5.685745 -1.155617 -0.000000 -5.097583 0.000000 -1.657408 -76.362482 7.267819 -64.798815 0.000001 -22.106115 41.774818 -4.341578 -1.923685 0.000000 
49.150400 87.285400 4.537400 -1.454061 -3.905250 -87.288661 -9.484507 3.156306 -6.962003 0.000000 9.817458 0.000000 -0.000000 3.433172 6.815491 0.000000 -1.340800 -0.000000 -3.850164 -0.530300 -7.793543 -0.000000 19.196054 -0.000000 0.000000 -2.391913 -1.521220 -0.000000 -29.537275 -0.000000 -6.170160 1.269018 -0.276657 17.478596 23.194371 1.756061 5.074903 0.000000 1.927698 85.619315 -0.195423 60.432069 0.000001 -13.928427 -57.362356 5.835298 -1.317572 0.000000 -5.050691 -0.000000 -1.654988 -76.450322 7.379206 -64.853273 -0.000001 -22.119780 41.933601 -4.196403 -1.973327 0.000000 
49.128100 87.227500 4.560400 -1.574437 -4.056110 -87.364416 -9.657124 3.070918 -6.752505 -0.000000 10.246076 0.000000 -0.000000 3.271372 6.700485 -0.000000 -1.339366 -0.000000 -4.112524 -0.677463 -8.070037 -0.000000 19.782792 -0.000000 -0.000000 -2.740085 -1.170175 0.000000 -29.537945 -0.000000 -6.421300 1.458742 -0.329585 17.476366 23.174475 1.799752 5.109250 -0.000000 1.936610 85.772957 0.063098 60.270331 0.000001 -13.942764 -57.872295 6.166196 -1.415787 0.000000 -5.095623 0.000000 -1.504467 -76.367534 7.446767 -64.695517 -0.000000 -22.104321 42.038969 -4.273255 -1.946814 0.000000 
49.108500 87.201400 4.588600 -1.746773 -4.100053 -87.425054 -9.728516 2.965493 -6.601628 -0.000000 10.828442 0.000000 0.000000 3.064070 6.584278 -0.000000 -1.342546 0.000000 -4.220564 -0.597652 -8.231488 -0.000000 20.006328 -0.000000 -0.000000 -2.865402 -0.979448 -0.000000 -29.538020 -0.000000 -6.490099 1.507307 -0.229326 17.536471 23.292222 1.619413 5.040344 0.000000 2.047284 85.884754 -0.338440 60.502625 -0.000000 -13.835226 -58.246632 6.549586 -1.443850 0.000000 -5.062727 -0.000000 -1.439165 -76.350771 7.521538 -64.588293 -0.000001 -22.140636 41.969097 -4.464824 -1.882463 0.000000 
